<?xml version="1.0" ?><!DOCTYPE svg  PUBLIC '-//W3C//DTD SVG 1.1//EN'  'http://www.w3.org/Graphics/SVG/1.1/DTD/svg11.dtd'><svg enable-background="new 0 0 48 48" height="48px" id="_x3C_Layer_x3E_" version="1.1" viewBox="0 0 48 48" width="48px" xml:space="preserve" xmlns="http://www.w3.org/2000/svg" xmlns:xlink="http://www.w3.org/1999/xlink"><g id="gear_x2C__setting"><g><path d="M44.696,21.839l-1.203-0.241c-0.41-0.082-0.717-0.413-0.787-0.825c-0.195-1.154-0.49-2.273-0.883-3.345    c-0.144-0.392-0.044-0.829,0.27-1.104l0.911-0.8c0.358-0.315,0.444-0.838,0.206-1.251l-1.18-2.044    c-0.238-0.413-0.735-0.6-1.187-0.447l-1.164,0.394c-0.395,0.134-0.825,0.002-1.092-0.319c-0.739-0.887-1.556-1.704-2.443-2.443    c-0.321-0.267-0.453-0.697-0.319-1.092l0.394-1.164c0.153-0.452-0.034-0.948-0.447-1.187l-2.044-1.18    c-0.413-0.238-0.937-0.152-1.251,0.206l-0.8,0.911c-0.275,0.313-0.712,0.414-1.104,0.27C29.5,5.784,28.38,5.489,27.227,5.293    c-0.413-0.07-0.743-0.377-0.825-0.787l-0.241-1.203C26.067,2.836,25.657,2.5,25.18,2.5h-2.36c-0.477,0-0.887,0.336-0.98,0.804    l-0.241,1.203c-0.082,0.41-0.413,0.717-0.825,0.787c-1.153,0.195-2.273,0.49-3.345,0.884c-0.392,0.144-0.829,0.043-1.104-0.27    l-0.8-0.911c-0.315-0.358-0.838-0.444-1.251-0.206l-2.044,1.18c-0.413,0.238-0.6,0.735-0.447,1.187l0.394,1.164    c0.134,0.395,0.002,0.825-0.319,1.092c-0.887,0.739-1.704,1.556-2.443,2.443c-0.267,0.321-0.697,0.453-1.092,0.319l-1.164-0.394    c-0.452-0.153-0.948,0.034-1.187,0.447l-1.18,2.044c-0.239,0.413-0.152,0.937,0.206,1.251l0.911,0.8    c0.313,0.275,0.414,0.712,0.27,1.104C5.784,18.5,5.489,19.62,5.293,20.773c-0.07,0.412-0.377,0.743-0.787,0.825l-1.203,0.241    C2.836,21.933,2.5,22.343,2.5,22.82v2.36c0,0.477,0.336,0.887,0.804,0.98l1.203,0.241c0.41,0.082,0.717,0.413,0.787,0.825    c0.195,1.154,0.49,2.273,0.883,3.345c0.144,0.392,0.044,0.829-0.27,1.104l-0.911,0.8c-0.358,0.315-0.444,0.838-0.206,1.251    l1.18,2.044c0.238,0.413,0.735,0.6,1.187,0.447l1.164-0.394c0.395-0.134,0.825-0.001,1.092,0.319    c0.739,0.887,1.556,1.704,2.443,2.443c0.32,0.267,0.453,0.697,0.319,1.092l-0.394,1.164c-0.153,0.452,0.034,0.948,0.447,1.187    l2.044,1.18c0.413,0.238,0.937,0.152,1.251-0.206l0.8-0.911c0.275-0.313,0.712-0.414,1.104-0.27    c1.072,0.393,2.191,0.688,3.345,0.883c0.413,0.07,0.743,0.377,0.825,0.787l0.241,1.203c0.093,0.467,0.504,0.804,0.98,0.804h2.36    c0.477,0,0.887-0.336,0.98-0.804l0.241-1.203c0.082-0.41,0.413-0.717,0.825-0.787c1.154-0.195,2.273-0.49,3.345-0.883    c0.392-0.144,0.829-0.044,1.104,0.27l0.8,0.911c0.315,0.358,0.838,0.444,1.251,0.206l2.044-1.18    c0.413-0.238,0.6-0.735,0.447-1.187l-0.394-1.164c-0.134-0.395-0.001-0.825,0.319-1.092c0.887-0.739,1.704-1.556,2.443-2.443    c0.267-0.32,0.697-0.453,1.092-0.319l1.164,0.394c0.452,0.153,0.948-0.034,1.187-0.447l1.18-2.044    c0.239-0.413,0.152-0.937-0.206-1.251l-0.911-0.8c-0.313-0.275-0.414-0.712-0.27-1.104c0.393-1.072,0.688-2.191,0.883-3.345    c0.07-0.413,0.377-0.743,0.787-0.825l1.203-0.241c0.467-0.093,0.804-0.504,0.804-0.98v-2.36    C45.5,22.343,45.164,21.933,44.696,21.839z M17.5,24c0-3.59,2.91-6.5,6.5-6.5s6.5,2.91,6.5,6.5s-2.91,6.5-6.5,6.5    S17.5,27.59,17.5,24z" fill="#FFE57F"/><path d="M25.18,46h-2.36c-0.713,0-1.332-0.507-1.471-1.206l-0.241-1.203c-0.041-0.202-0.205-0.355-0.418-0.392    c-1.184-0.201-2.339-0.506-3.434-0.907c-0.205-0.075-0.422-0.024-0.557,0.13l-0.8,0.911c-0.471,0.534-1.26,0.665-1.877,0.309    l-2.044-1.18c-0.617-0.356-0.899-1.104-0.671-1.78l0.394-1.164c0.066-0.194,0.001-0.409-0.166-0.548    c-0.907-0.756-1.75-1.599-2.507-2.507c-0.139-0.166-0.354-0.231-0.547-0.165l-1.164,0.394c-0.676,0.229-1.424-0.054-1.78-0.671    l-1.18-2.044c-0.356-0.617-0.227-1.406,0.309-1.877l0.911-0.8c0.154-0.135,0.205-0.354,0.13-0.557    c-0.401-1.095-0.707-2.25-0.907-3.434c-0.036-0.214-0.19-0.378-0.392-0.418l-1.203-0.241C2.507,26.512,2,25.893,2,25.18v-2.36    c0-0.713,0.507-1.332,1.206-1.471l1.203-0.241C4.61,21.068,4.764,20.904,4.8,20.69c0.201-1.184,0.506-2.339,0.907-3.434    c0.075-0.204,0.023-0.422-0.13-0.557l-0.911-0.8c-0.535-0.471-0.665-1.26-0.309-1.877l1.18-2.044    c0.356-0.617,1.106-0.899,1.78-0.671l1.164,0.394c0.194,0.066,0.409,0.001,0.547-0.165c0.756-0.908,1.6-1.751,2.507-2.507    c0.166-0.138,0.231-0.353,0.165-0.547l-0.394-1.164c-0.229-0.675,0.054-1.424,0.671-1.78l2.044-1.18    c0.616-0.356,1.406-0.227,1.877,0.309l0.8,0.911c0.136,0.154,0.355,0.206,0.557,0.13C18.35,5.307,19.505,5.001,20.69,4.8    c0.214-0.036,0.378-0.19,0.418-0.392l0.241-1.203C21.488,2.507,22.107,2,22.82,2h2.36c0.713,0,1.332,0.507,1.471,1.206    l0.241,1.203C26.932,4.61,27.096,4.764,27.31,4.8c1.185,0.201,2.34,0.506,3.434,0.908c0.201,0.072,0.421,0.023,0.557-0.131    l0.8-0.911C32.571,4.131,33.36,4,33.978,4.357l2.044,1.18c0.617,0.356,0.899,1.104,0.671,1.78l-0.394,1.164    c-0.066,0.194-0.001,0.409,0.165,0.547c0.908,0.756,1.751,1.6,2.507,2.507c0.139,0.166,0.352,0.23,0.547,0.165l1.164-0.394    c0.676-0.23,1.424,0.054,1.78,0.671l1.18,2.044c0.356,0.617,0.227,1.406-0.309,1.877l-0.911,0.8    c-0.154,0.135-0.205,0.354-0.13,0.557c0.401,1.095,0.707,2.25,0.907,3.434c0.036,0.214,0.19,0.378,0.392,0.418l1.203,0.241    C45.493,21.489,46,22.107,46,22.82v2.36c0,0.713-0.507,1.332-1.206,1.471l-1.203,0.241c-0.202,0.041-0.355,0.205-0.392,0.418    c-0.201,1.184-0.506,2.339-0.907,3.434c-0.075,0.204-0.023,0.422,0.13,0.557l0.911,0.8c0.535,0.471,0.665,1.26,0.309,1.877    l-1.18,2.044c-0.356,0.617-1.106,0.899-1.78,0.671l-1.164-0.394c-0.194-0.066-0.408,0-0.548,0.166    c-0.756,0.907-1.599,1.75-2.507,2.507c-0.166,0.138-0.231,0.353-0.165,0.547l0.394,1.164c0.229,0.675-0.054,1.424-0.671,1.78    l-2.044,1.18c-0.617,0.356-1.407,0.226-1.877-0.309l-0.8-0.911c-0.134-0.153-0.352-0.204-0.557-0.13    c-1.095,0.401-2.25,0.707-3.434,0.907c-0.214,0.036-0.378,0.19-0.418,0.392l-0.241,1.203C26.512,45.493,25.893,46,25.18,46z     M17.065,41.258c0.178,0,0.359,0.031,0.535,0.096c1.037,0.38,2.133,0.669,3.256,0.859c0.626,0.106,1.109,0.57,1.232,1.182    l0.241,1.203C22.376,44.831,22.582,45,22.82,45h2.36c0.238,0,0.444-0.169,0.49-0.401l0.241-1.204    c0.123-0.612,0.606-1.076,1.232-1.182c1.124-0.19,2.219-0.479,3.257-0.859c0.593-0.219,1.242-0.058,1.652,0.409l0.8,0.911    c0.157,0.177,0.42,0.22,0.626,0.103l2.044-1.18c0.206-0.119,0.3-0.368,0.224-0.593l-0.394-1.164    c-0.199-0.588-0.014-1.23,0.472-1.636c0.861-0.718,1.662-1.518,2.379-2.379c0.405-0.487,1.048-0.672,1.636-0.473l1.164,0.394    c0.225,0.075,0.475-0.019,0.593-0.224l1.18-2.044c0.119-0.206,0.076-0.469-0.103-0.626l-0.911-0.8    c-0.466-0.41-0.627-1.059-0.409-1.652c0.38-1.037,0.669-2.133,0.859-3.256c0.106-0.626,0.57-1.109,1.182-1.232l1.203-0.241    C44.831,25.624,45,25.418,45,25.18v-2.36c0-0.238-0.169-0.444-0.401-0.49c0,0,0,0,0,0l-1.203-0.241    c-0.612-0.123-1.075-0.606-1.182-1.232c-0.19-1.124-0.479-2.219-0.859-3.257c-0.218-0.593-0.058-1.242,0.409-1.652l0.911-0.8    c0.178-0.157,0.222-0.42,0.103-0.626l-1.18-2.044c-0.119-0.206-0.368-0.299-0.593-0.224l-1.164,0.394    c-0.588,0.2-1.231,0.015-1.636-0.473c-0.717-0.861-1.518-1.661-2.378-2.378c-0.487-0.405-0.672-1.047-0.473-1.636l0.394-1.164    c0.076-0.225-0.018-0.475-0.224-0.593l-2.044-1.18c-0.205-0.119-0.469-0.076-0.626,0.103l-0.8,0.911    c-0.409,0.467-1.058,0.627-1.652,0.41c-1.037-0.381-2.133-0.67-3.257-0.86c-0.626-0.106-1.109-0.57-1.232-1.182L25.67,3.402    C25.624,3.169,25.418,3,25.18,3h-2.36c-0.238,0-0.444,0.169-0.49,0.401l-0.241,1.204c-0.123,0.612-0.606,1.076-1.232,1.182    c-1.125,0.19-2.22,0.479-3.256,0.86c-0.592,0.218-1.242,0.058-1.652-0.409l-0.8-0.911c-0.157-0.178-0.421-0.223-0.626-0.103    l-2.044,1.18c-0.206,0.119-0.3,0.368-0.224,0.593l0.394,1.164c0.199,0.589,0.014,1.231-0.473,1.636    c-0.861,0.717-1.661,1.518-2.378,2.378c-0.404,0.487-1.048,0.672-1.636,0.473l-1.164-0.394c-0.227-0.076-0.475,0.018-0.593,0.224    l-1.18,2.044c-0.119,0.206-0.076,0.469,0.103,0.626l0.911,0.8c0.466,0.41,0.627,1.059,0.409,1.652    c-0.38,1.037-0.669,2.133-0.859,3.256c-0.106,0.626-0.57,1.109-1.182,1.232L3.402,22.33C3.169,22.376,3,22.582,3,22.82v2.36    c0,0.238,0.169,0.444,0.401,0.49l1.204,0.241c0.612,0.123,1.076,0.606,1.182,1.232c0.19,1.124,0.479,2.219,0.859,3.257    c0.218,0.593,0.058,1.242-0.409,1.652l-0.911,0.8c-0.178,0.157-0.222,0.42-0.103,0.626l1.18,2.044    c0.119,0.206,0.367,0.299,0.593,0.224l1.164-0.394c0.587-0.199,1.23-0.014,1.636,0.472c0.718,0.861,1.518,1.662,2.379,2.379    c0.487,0.406,0.672,1.048,0.473,1.636l-0.394,1.164c-0.076,0.225,0.018,0.475,0.224,0.593l2.044,1.18    c0.205,0.119,0.469,0.076,0.626-0.103l0.8-0.911C16.236,41.435,16.643,41.258,17.065,41.258z M24,31c-3.86,0-7-3.14-7-7    s3.14-7,7-7s7,3.14,7,7S27.86,31,24,31z M24,18c-3.309,0-6,2.691-6,6s2.691,6,6,6s6-2.691,6-6S27.309,18,24,18z" fill="#0277BD"/></g><path d="M5.656,33.728c-0.139,0-0.277-0.058-0.375-0.17c-0.183-0.208-0.162-0.523,0.045-0.706l0.911-0.8   c0.466-0.41,0.627-1.059,0.409-1.652c-0.38-1.037-0.67-2.132-0.86-3.257c-0.105-0.626-0.569-1.109-1.181-1.232L3,25.59v-3.18   l1.605-0.321c0.612-0.123,1.076-0.606,1.181-1.232c0.19-1.124,0.479-2.219,0.86-3.256c0.218-0.595,0.058-1.243-0.409-1.653   l-1.219-1.071l1.59-2.754l1.551,0.525c0.588,0.2,1.231,0.014,1.636-0.472c0.718-0.861,1.518-1.662,2.378-2.379   c0.487-0.405,0.672-1.047,0.473-1.636l-0.525-1.552l2.754-1.591l1.071,1.219c0.41,0.467,1.059,0.628,1.652,0.409   c1.037-0.38,2.132-0.669,3.257-0.86c0.626-0.105,1.109-0.569,1.232-1.181L22.41,3h2.77c0.276,0,0.5,0.224,0.5,0.5S25.457,4,25.18,4   h-1.951l-0.16,0.801c-0.205,1.022-1.007,1.795-2.045,1.971c-1.064,0.18-2.101,0.454-3.08,0.813   c-0.982,0.364-2.062,0.093-2.748-0.688l-0.53-0.603l-1.334,0.771l0.262,0.775c0.333,0.983,0.027,2.053-0.78,2.725   c-0.814,0.678-1.571,1.436-2.25,2.25c-0.671,0.807-1.74,1.113-2.725,0.779l-0.775-0.262l-0.77,1.334l0.603,0.53   c0.779,0.685,1.049,1.764,0.687,2.749c-0.359,0.979-0.632,2.015-0.812,3.079c-0.176,1.038-0.949,1.841-1.971,2.045L4,23.229v1.541   l0.801,0.16c1.022,0.205,1.795,1.007,1.971,2.045c0.18,1.064,0.454,2.1,0.813,3.079c0.361,0.985,0.092,2.063-0.688,2.748   l-0.911,0.8C5.891,33.687,5.773,33.728,5.656,33.728z" fill="#FFF8E1"/><path d="M24,38c-7.72,0-14-6.28-14-14s6.28-14,14-14s14,6.28,14,14c0,3.455-1.269,6.772-3.573,9.342   c-0.185,0.207-0.5,0.223-0.706,0.038c-0.206-0.184-0.223-0.5-0.038-0.706C35.822,30.288,37,27.208,37,24c0-7.168-5.832-13-13-13   s-13,5.832-13,13s5.832,13,13,13c2.778,0,5.429-0.864,7.665-2.499c0.223-0.163,0.536-0.115,0.699,0.109   c0.163,0.223,0.114,0.536-0.109,0.699C29.847,37.069,26.992,38,24,38z" fill="#0277BD"/><path d="M24,39c-8.271,0-15-6.729-15-15S15.729,9,24,9s15,6.729,15,15c0,3.632-1.315,7.137-3.703,9.869   c-0.182,0.208-0.5,0.229-0.706,0.047c-0.208-0.182-0.229-0.498-0.047-0.706C36.772,30.661,38,27.39,38,24c0-7.72-6.28-14-14-14   s-14,6.28-14,14s6.28,14,14,14c2.935,0,5.745-0.898,8.126-2.598c0.225-0.161,0.538-0.108,0.697,0.116   c0.161,0.225,0.108,0.537-0.116,0.697C30.156,38.037,27.145,39,24,39z" fill="#FFF8E1"/><path d="M24,32c-4.411,0-8-3.589-8-8s3.589-8,8-8s8,3.589,8,8S28.411,32,24,32z M24,17c-3.86,0-7,3.14-7,7   s3.14,7,7,7s7-3.14,7-7S27.86,17,24,17z" fill="#FFF8E1"/><path d="M24,37c-7.168,0-13-5.832-13-13s5.832-13,13-13s13,5.832,13,13c0,3.131-1.129,6.156-3.179,8.518   c-0.181,0.209-0.496,0.231-0.705,0.05c-0.208-0.181-0.231-0.497-0.05-0.705C34.958,29.682,36,26.89,36,24c0-6.617-5.383-12-12-12   s-12,5.383-12,12s5.383,12,12,12c2.634,0,5.134-0.837,7.229-2.422c0.22-0.168,0.534-0.123,0.701,0.097   c0.167,0.221,0.123,0.534-0.097,0.701C29.563,36.093,26.854,37,24,37z" fill="#FFF8E1"/></g></svg>