<svg width="1" height="1" viewBox="0 0 1 1" fill="none" xmlns="http://www.w3.org/2000/svg">
<g clip-path="url(#clip0_2_3)">
<path fill-rule="evenodd" clip-rule="evenodd" d="M0.499797 0.364594C0.425047 0.364594 0.36438 0.42526 0.36438 0.50001C0.36438 0.57476 0.425047 0.635427 0.499797 0.635427C0.574547 0.635427 0.635213 0.57476 0.635213 0.50001C0.635213 0.42526 0.574547 0.364594 0.499797 0.364594ZM0.499797 0.427094C0.540047 0.427094 0.572713 0.45976 0.572713 0.50001C0.572713 0.54026 0.540047 0.572927 0.499797 0.572927C0.459547 0.572927 0.42688 0.54026 0.42688 0.50001C0.42688 0.45976 0.459547 0.427094 0.499797 0.427094Z" fill="#484848"/>
<path fill-rule="evenodd" clip-rule="evenodd" d="M0.324225 0.144718C0.324225 0.158462 0.316491 0.171128 0.303944 0.178C0.291397 0.184872 0.275929 0.184872 0.263382 0.178C0.254242 0.173026 0.245265 0.168103 0.236612 0.163333C0.208651 0.148051 0.175445 0.143897 0.144293 0.151846C0.113088 0.159744 0.0865335 0.179077 0.070363 0.20559C0.053273 0.233692 0.0334248 0.266308 0.0162808 0.29441C0.000164267 0.320923 -0.0042164 0.35241 0.00416634 0.381949C0.012495 0.411538 0.032884 0.436718 0.0608445 0.452051C0.0694976 0.456769 0.0784753 0.461692 0.0876152 0.466667C0.100162 0.473538 0.107896 0.486256 0.107896 0.5C0.107896 0.513744 0.100162 0.526462 0.0876152 0.533333C0.0784753 0.538308 0.0694976 0.543231 0.0608445 0.547949C0.032884 0.563282 0.012495 0.588462 0.00416634 0.618051C-0.0042164 0.64759 0.000164267 0.679077 0.0162808 0.70559C0.0334248 0.733692 0.053273 0.766308 0.070363 0.79441C0.0865335 0.820923 0.113088 0.840256 0.144293 0.848154C0.175445 0.856103 0.208651 0.851949 0.236612 0.836667C0.245265 0.831897 0.254242 0.826974 0.263382 0.822C0.275929 0.815128 0.291397 0.815128 0.303944 0.822C0.316491 0.828872 0.324225 0.841538 0.324225 0.855282C0.324225 0.865282 0.324225 0.875179 0.324225 0.884615C0.324225 0.915231 0.337042 0.944564 0.359865 0.966205C0.382688 0.987846 0.413623 1 0.44591 1H0.554074C0.586361 1 0.617296 0.987846 0.640119 0.966205C0.662942 0.944564 0.675759 0.915231 0.675759 0.884615V0.855282C0.675759 0.841538 0.683493 0.828872 0.69604 0.822C0.708587 0.815128 0.724055 0.815128 0.736602 0.822C0.745741 0.826974 0.754773 0.831897 0.763372 0.836667C0.791333 0.851949 0.824539 0.856103 0.855745 0.848154C0.886896 0.840256 0.913504 0.820923 0.929621 0.79441C0.946711 0.766308 0.966613 0.733692 0.983703 0.70559C0.99982 0.679077 1.0042 0.64759 0.995872 0.618051C0.987489 0.588462 0.9671 0.563282 0.939139 0.547949C0.93054 0.543231 0.921509 0.538308 0.912369 0.533333C0.899822 0.526462 0.892088 0.513744 0.892088 0.5C0.892088 0.486256 0.899822 0.473538 0.912369 0.466667C0.921509 0.461692 0.93054 0.456769 0.939139 0.452051C0.9671 0.436718 0.987489 0.411538 0.995872 0.381949C1.0042 0.35241 0.99982 0.320923 0.983703 0.29441C0.966613 0.266308 0.946711 0.233692 0.929621 0.20559C0.913504 0.179077 0.886896 0.159744 0.855745 0.151846C0.824539 0.143897 0.791333 0.148051 0.763372 0.163333C0.754773 0.168103 0.745741 0.173026 0.736602 0.178C0.724055 0.184872 0.708587 0.184872 0.69604 0.178C0.683493 0.171128 0.675759 0.158462 0.675759 0.144718C0.675759 0.134718 0.675759 0.124821 0.675759 0.115385C0.675759 0.0847692 0.662942 0.0554359 0.640119 0.0337949C0.617296 0.0121538 0.586361 0 0.554074 0H0.44591C0.413623 0 0.382688 0.0121538 0.359865 0.0337949C0.337042 0.0554359 0.324225 0.0847692 0.324225 0.115385V0.144718ZM0.405348 0.144718V0.115385C0.405348 0.105179 0.409621 0.0953846 0.417246 0.0882051C0.424872 0.0809744 0.435147 0.0769231 0.44591 0.0769231H0.554074C0.564837 0.0769231 0.575166 0.0809744 0.582792 0.0882051C0.590363 0.0953846 0.594636 0.105179 0.594636 0.115385V0.144718C0.594636 0.185949 0.617837 0.224 0.655478 0.244615C0.693119 0.265231 0.739522 0.265231 0.777163 0.244615C0.786303 0.239641 0.795335 0.234718 0.803934 0.229949C0.81329 0.224872 0.824323 0.223487 0.834707 0.226154C0.845145 0.228769 0.85396 0.235231 0.859368 0.244051C0.876458 0.272154 0.89636 0.304769 0.91345 0.332872C0.918805 0.341692 0.920265 0.352205 0.917507 0.362051C0.914694 0.371897 0.907934 0.380308 0.898578 0.385436C0.889979 0.390154 0.880947 0.395077 0.871807 0.400051C0.834166 0.420667 0.810965 0.458769 0.810965 0.5C0.810965 0.541231 0.834166 0.579333 0.871807 0.599949C0.880947 0.604923 0.889979 0.609846 0.898578 0.614564C0.907934 0.619692 0.914694 0.628103 0.917507 0.637949C0.920265 0.647795 0.918805 0.658308 0.91345 0.667128C0.89636 0.695231 0.876458 0.727846 0.859368 0.755949C0.85396 0.764769 0.845145 0.771231 0.834707 0.773846C0.824323 0.776513 0.81329 0.775128 0.803934 0.770051C0.795335 0.765282 0.786303 0.760359 0.777163 0.755385C0.739522 0.734769 0.693119 0.734769 0.655478 0.755385C0.617837 0.776 0.594636 0.814051 0.594636 0.855282C0.594636 0.865282 0.594636 0.875179 0.594636 0.884615C0.594636 0.894821 0.590363 0.904615 0.582792 0.911795C0.575166 0.919026 0.564837 0.923077 0.554074 0.923077H0.44591C0.435147 0.923077 0.424872 0.919026 0.417246 0.911795C0.409621 0.904615 0.405348 0.894821 0.405348 0.884615V0.855282C0.405348 0.814051 0.382147 0.776 0.344506 0.755385C0.306864 0.734769 0.260462 0.734769 0.222821 0.755385C0.213681 0.760359 0.204703 0.765282 0.19605 0.770051C0.186748 0.775128 0.175661 0.776513 0.165277 0.773846C0.154893 0.771231 0.146024 0.764769 0.140616 0.755949C0.123526 0.727846 0.103678 0.695231 0.0865335 0.667128C0.0811794 0.658308 0.0797192 0.647795 0.0825315 0.637949C0.0852896 0.628103 0.092104 0.619692 0.101406 0.614564C0.110059 0.609846 0.119037 0.604923 0.128177 0.599949C0.165818 0.579333 0.189019 0.541231 0.189019 0.5C0.189019 0.458769 0.165818 0.420667 0.128177 0.400051C0.119037 0.395077 0.110059 0.390154 0.101406 0.385436C0.092104 0.380308 0.0852896 0.371897 0.0825315 0.362051C0.0797192 0.352205 0.0811794 0.341692 0.0865335 0.332872C0.103678 0.304769 0.123526 0.272154 0.140616 0.244051C0.146024 0.235231 0.154893 0.228769 0.165277 0.226154C0.175661 0.223487 0.186748 0.224872 0.19605 0.229949C0.204703 0.234718 0.213681 0.239641 0.222821 0.244615C0.260462 0.265231 0.306864 0.265231 0.344506 0.244615C0.382147 0.224 0.405348 0.185949 0.405348 0.144718Z" fill="#484848"/>
</g>
<defs>
<clipPath id="clip0_2_3">
<rect width="1" height="1" fill="white"/>
</clipPath>
</defs>
</svg>
